<?xml version="1.0" encoding="UTF-8"?>
<svg width="64px" height="64px" viewBox="0 0 64 64" version="1.1" xmlns="http://www.w3.org/2000/svg" xmlns:xlink="http://www.w3.org/1999/xlink">
    <!-- Generator: Sketch 43.2 (39069) - http://www.bohemiancoding.com/sketch -->
    <title>favicon</title>
    <desc>Created with Sketch.</desc>
    <defs></defs>
    <g id="Page-1" stroke="none" stroke-width="1" fill="none" fill-rule="evenodd">
        <g id="favicon" fill="#4990E2">
            <path d="M46.0725668,11.9011425 C48.0517258,13.1334855 60.1782969,20.5314126 60.1782969,36.8713411 C60.1782969,53.210972 47.2476227,64 32.3346648,64 C17.4272123,64 4,52.2866403 4,36.3803085 C4,20.4696615 16.4351777,13.0736688 18.7244312,11.9011425 C21.4495134,10.4191168 23.4314996,9.68063351 26.5808042,7.21847696 C28.0680378,5.98479473 29.3683814,4.25457437 29.7978117,0 C32.0287366,2.65038571 34.6877525,5.73302892 36.6044165,7.02712304 C39.6959876,9.06475958 42.7948497,9.86410115 46.0725668,11.9011425 Z M32.0278763,32.1093271 L20.9121586,20.5887471 L16.3532483,24.9874458 L27.6263625,36.671155 L16.1948733,48.5190076 L20.7537836,52.9177064 L32.0278763,41.232983 L43.3019691,52.9177064 L47.8608794,48.5190076 L36.4293902,36.671155 L47.7025044,24.9874458 L43.1435941,20.5887471 L32.0278763,32.1093271 L32.0278763,32.1093271 Z" id="Combined-Shape-Copy"></path>
        </g>
    </g>
</svg>